<svg width="139" height="666" viewBox="0 0 139 666" fill="none" xmlns="http://www.w3.org/2000/svg">
<path d="M0.666667 329C0.666667 331.946 3.05448 334.333 6 334.333C8.94552 334.333 11.3333 331.946 11.3333 329C11.3333 326.054 8.94552 323.667 6 323.667C3.05448 323.667 0.666667 326.054 0.666667 329ZM79 330C79.5523 330 80 329.552 80 329C80 328.448 79.5523 328 79 328V330ZM6 330L79 330V328L6 328L6 330Z" fill="#5A5A5A"/>
<path d="M79 660L79 6" stroke="#5A5A5A" stroke-width="2" stroke-linecap="round"/>
<path d="M79 328C78.4477 328 78 328.448 78 329C78 329.552 78.4477 330 79 330V328ZM127.667 329C127.667 331.946 130.054 334.333 133 334.333C135.946 334.333 138.333 331.946 138.333 329C138.333 326.054 135.946 323.667 133 323.667C130.054 323.667 127.667 326.054 127.667 329ZM79 330H133V328H79V330Z" fill="#5A5A5A"/>
<path d="M79 5C78.4477 5 78 5.44772 78 6C78 6.55228 78.4477 7 79 7V5ZM127.667 6C127.667 8.94552 130.054 11.3333 133 11.3333C135.946 11.3333 138.333 8.94552 138.333 6C138.333 3.05448 135.946 0.666667 133 0.666667C130.054 0.666667 127.667 3.05448 127.667 6ZM79 7H133V5H79V7Z" fill="#5A5A5A"/>
<path d="M79 659C78.4477 659 78 659.448 78 660C78 660.552 78.4477 661 79 661V659ZM127.667 660C127.667 662.946 130.054 665.333 133 665.333C135.946 665.333 138.333 662.946 138.333 660C138.333 657.054 135.946 654.667 133 654.667C130.054 654.667 127.667 657.054 127.667 660ZM79 661H133V659H79V661Z" fill="#5A5A5A"/>
</svg>
