<svg width="78" height="162" viewBox="0 0 78 162" fill="none" xmlns="http://www.w3.org/2000/svg">
<path d="M39 3L39 159" stroke="#5A5A5A" stroke-linecap="round"/>
<path d="M39 2.5C38.7239 2.5 38.5 2.72386 38.5 3C38.5 3.27614 38.7239 3.5 39 3.5V2.5ZM72.3333 3C72.3333 4.47276 73.5272 5.66667 75 5.66667C76.4728 5.66667 77.6667 4.47276 77.6667 3C77.6667 1.52724 76.4728 0.333333 75 0.333333C73.5272 0.333333 72.3333 1.52724 72.3333 3ZM39 3.5L75 3.5V2.5L39 2.5V3.5Z" fill="#5A5A5A"/>
<path d="M39 56.5C38.7239 56.5 38.5 56.7239 38.5 57C38.5 57.2761 38.7239 57.5 39 57.5V56.5ZM72.3333 57C72.3333 58.4728 73.5272 59.6667 75 59.6667C76.4728 59.6667 77.6667 58.4728 77.6667 57C77.6667 55.5272 76.4728 54.3333 75 54.3333C73.5272 54.3333 72.3333 55.5272 72.3333 57ZM39 57.5H75V56.5H39V57.5Z" fill="#5A5A5A"/>
<path d="M0.333333 3C0.333333 4.47276 1.52724 5.66667 3 5.66667C4.47276 5.66667 5.66667 4.47276 5.66667 3C5.66667 1.52724 4.47276 0.333333 3 0.333333C1.52724 0.333333 0.333333 1.52724 0.333333 3ZM39 3.5C39.2761 3.5 39.5 3.27614 39.5 3C39.5 2.72385 39.2761 2.5 39 2.5L39 3.5ZM3 3.5L39 3.5L39 2.5L3 2.5L3 3.5Z" fill="#5A5A5A"/>
<path d="M39 158.5C38.7239 158.5 38.5 158.724 38.5 159C38.5 159.276 38.7239 159.5 39 159.5V158.5ZM72.3333 159C72.3333 160.473 73.5272 161.667 75 161.667C76.4728 161.667 77.6667 160.473 77.6667 159C77.6667 157.527 76.4728 156.333 75 156.333C73.5272 156.333 72.3333 157.527 72.3333 159ZM39 159.5H75V158.5H39V159.5Z" fill="#5A5A5A"/>
</svg>
