<svg width="6" height="37" viewBox="0 0 6 37" fill="none" xmlns="http://www.w3.org/2000/svg">
<path d="M3 36.2917C4.47276 36.2917 5.66667 35.0978 5.66667 33.625C5.66667 32.1522 4.47276 30.9583 3 30.9583C1.52724 30.9583 0.333333 32.1522 0.333333 33.625C0.333333 35.0978 1.52724 36.2917 3 36.2917ZM3 6.29166C4.47276 6.29166 5.66667 5.09776 5.66667 3.625C5.66667 2.15224 4.47276 0.958332 3 0.958332C1.52724 0.958332 0.333335 2.15224 0.333335 3.625C0.333335 5.09776 1.52724 6.29166 3 6.29166ZM3.5 33.625L3.5 3.625L2.5 3.625L2.5 33.625L3.5 33.625Z" fill="#5A5A5A"/>
</svg>
