<svg width="145" height="33" viewBox="0 0 145 33" fill="none" xmlns="http://www.w3.org/2000/svg">
<path d="M8.272 2.152C11.1947 2.152 13.3493 2.792 14.736 4.072C16.144 5.33067 16.848 7.09067 16.848 9.352C16.848 10.376 16.6987 11.3573 16.4 12.296C16.1013 13.2133 15.6 14.0347 14.896 14.76C14.2133 15.4853 13.3067 16.0613 12.176 16.488C11.0667 16.9147 9.69067 17.128 8.048 17.128H6.128V25H0.688V2.152H8.272ZM8.08 6.6H6.128V12.68H7.568C8.31467 12.68 8.96533 12.5733 9.52 12.36C10.096 12.1467 10.544 11.8053 10.864 11.336C11.184 10.8667 11.344 10.2587 11.344 9.512C11.344 8.57333 11.0773 7.85867 10.544 7.368C10.0107 6.856 9.18933 6.6 8.08 6.6ZM25.8683 4.936C25.8683 6.00267 25.8363 6.96267 25.7723 7.816C25.7083 8.648 25.6549 9.256 25.6123 9.64H25.9003C26.2843 9.02133 26.7216 8.53067 27.2123 8.168C27.7029 7.80533 28.2576 7.53867 28.8763 7.368C29.4949 7.19733 30.1563 7.112 30.8603 7.112C32.0763 7.112 33.1536 7.336 34.0923 7.784C35.0309 8.232 35.7669 8.92533 36.3003 9.864C36.8549 10.8027 37.1323 12.0293 37.1323 13.544V25H31.7243V15.048C31.7243 13.8107 31.5216 12.8933 31.1163 12.296C30.7323 11.6773 30.1029 11.368 29.2283 11.368C28.3749 11.368 27.7029 11.592 27.2123 12.04C26.7216 12.4667 26.3696 13.096 26.1562 13.928C25.9643 14.76 25.8683 15.784 25.8683 17V25H20.4603V0.679998H25.8683V4.936ZM58.031 16.168C58.031 17.64 57.8283 18.9413 57.423 20.072C57.039 21.2027 56.463 22.1627 55.695 22.952C54.9483 23.7413 54.0417 24.3387 52.975 24.744C51.9297 25.128 50.7243 25.32 49.359 25.32C48.1217 25.32 46.9697 25.128 45.903 24.744C44.8577 24.3387 43.951 23.752 43.183 22.984C42.4363 22.1947 41.8497 21.2347 41.423 20.104C40.9963 18.952 40.783 17.64 40.783 16.168C40.783 14.2267 41.1243 12.584 41.807 11.24C42.511 9.896 43.5137 8.872 44.815 8.168C46.1163 7.464 47.663 7.112 49.455 7.112C51.1403 7.112 52.623 7.464 53.903 8.168C55.183 8.872 56.1857 9.896 56.911 11.24C57.6577 12.584 58.031 14.2267 58.031 16.168ZM46.255 16.168C46.255 17.256 46.3617 18.1733 46.575 18.92C46.7883 19.6667 47.1297 20.232 47.599 20.616C48.0683 20.9787 48.6763 21.16 49.423 21.16C50.191 21.16 50.799 20.9787 51.247 20.616C51.695 20.232 52.0257 19.6667 52.239 18.92C52.4523 18.1733 52.559 17.256 52.559 16.168C52.559 15.08 52.4523 14.1733 52.239 13.448C52.0257 12.7227 51.6843 12.1787 51.215 11.816C50.767 11.4533 50.159 11.272 49.391 11.272C48.303 11.272 47.503 11.688 46.991 12.52C46.5003 13.3307 46.255 14.5467 46.255 16.168ZM69.7095 21.032C70.2642 21.032 70.7762 20.9787 71.2455 20.872C71.7148 20.7653 72.1948 20.6267 72.6855 20.456V24.424C72.1095 24.68 71.4482 24.8933 70.7015 25.064C69.9548 25.2347 69.0695 25.32 68.0455 25.32C66.9575 25.32 65.9868 25.1493 65.1335 24.808C64.3015 24.4453 63.6402 23.8373 63.1495 22.984C62.6802 22.1093 62.4455 20.904 62.4455 19.368V11.464H60.2055V9.224L62.8935 7.496L64.3655 3.784H67.8215V7.432H72.4935V11.464H67.8215V19.176C67.8215 19.7947 67.9922 20.264 68.3335 20.584C68.6748 20.8827 69.1335 21.032 69.7095 21.032ZM92.3748 16.168C92.3748 17.64 92.1721 18.9413 91.7668 20.072C91.3828 21.2027 90.8068 22.1627 90.0388 22.952C89.2921 23.7413 88.3854 24.3387 87.3188 24.744C86.2734 25.128 85.0681 25.32 83.7028 25.32C82.4654 25.32 81.3134 25.128 80.2468 24.744C79.2014 24.3387 78.2948 23.752 77.5268 22.984C76.7801 22.1947 76.1934 21.2347 75.7668 20.104C75.3401 18.952 75.1268 17.64 75.1268 16.168C75.1268 14.2267 75.4681 12.584 76.1508 11.24C76.8548 9.896 77.8574 8.872 79.1588 8.168C80.4601 7.464 82.0068 7.112 83.7988 7.112C85.4841 7.112 86.9668 7.464 88.2468 8.168C89.5268 8.872 90.5294 9.896 91.2548 11.24C92.0014 12.584 92.3748 14.2267 92.3748 16.168ZM80.5988 16.168C80.5988 17.256 80.7054 18.1733 80.9188 18.92C81.1321 19.6667 81.4734 20.232 81.9427 20.616C82.4121 20.9787 83.0201 21.16 83.7668 21.16C84.5348 21.16 85.1428 20.9787 85.5908 20.616C86.0388 20.232 86.3694 19.6667 86.5828 18.92C86.7961 18.1733 86.9028 17.256 86.9028 16.168C86.9028 15.08 86.7961 14.1733 86.5828 13.448C86.3694 12.7227 86.0281 12.1787 85.5588 11.816C85.1108 11.4533 84.5028 11.272 83.7348 11.272C82.6468 11.272 81.8468 11.688 81.3348 12.52C80.8441 13.3307 80.5988 14.5467 80.5988 16.168Z" fill="#0D1424"/>
<path d="M110.453 25L109.045 20.104H101.141L99.7333 25H93.7812L101.557 2.056H108.533L116.405 25H110.453ZM106.485 10.984C106.379 10.6 106.229 10.088 106.037 9.448C105.867 8.78667 105.685 8.11467 105.493 7.432C105.323 6.74933 105.184 6.17333 105.077 5.704C104.992 6.17333 104.853 6.76 104.661 7.464C104.491 8.14667 104.32 8.81867 104.149 9.48C103.979 10.12 103.84 10.6213 103.733 10.984L102.389 15.56H107.829L106.485 10.984ZM128.95 7.112C130.913 7.112 132.481 7.89067 133.654 9.448C134.828 10.984 135.414 13.224 135.414 16.168C135.414 18.1733 135.126 19.8587 134.55 21.224C133.974 22.5893 133.185 23.6133 132.182 24.296C131.201 24.9787 130.07 25.32 128.79 25.32C127.958 25.32 127.244 25.2133 126.646 25C126.07 24.7867 125.569 24.52 125.142 24.2C124.737 23.8587 124.396 23.5173 124.118 23.176H123.894C123.958 23.5813 124.012 24.008 124.054 24.456C124.097 24.904 124.118 25.384 124.118 25.896V32.68H118.71V7.432H123.094L123.862 9.672H124.118C124.417 9.20267 124.78 8.776 125.206 8.392C125.654 8.008 126.188 7.69867 126.806 7.464C127.425 7.22933 128.14 7.112 128.95 7.112ZM127.062 11.368C126.337 11.368 125.761 11.528 125.334 11.848C124.929 12.168 124.63 12.648 124.438 13.288C124.246 13.9067 124.14 14.696 124.118 15.656V16.136C124.118 17.1813 124.204 18.0667 124.374 18.792C124.566 19.496 124.876 20.04 125.302 20.424C125.75 20.7867 126.358 20.968 127.126 20.968C127.745 20.968 128.257 20.7973 128.662 20.456C129.089 20.0933 129.398 19.5493 129.59 18.824C129.804 18.0987 129.91 17.192 129.91 16.104C129.91 14.4613 129.676 13.2667 129.206 12.52C128.737 11.752 128.022 11.368 127.062 11.368ZM144.525 7.432V25H139.149V7.432H144.525ZM141.869 0.455999C142.637 0.455999 143.309 0.626666 143.885 0.967999C144.461 1.30933 144.749 1.97067 144.749 2.952C144.749 3.912 144.461 4.57333 143.885 4.936C143.309 5.27733 142.637 5.448 141.869 5.448C141.058 5.448 140.365 5.27733 139.789 4.936C139.234 4.57333 138.957 3.912 138.957 2.952C138.957 1.97067 139.234 1.30933 139.789 0.967999C140.365 0.626666 141.058 0.455999 141.869 0.455999Z" fill="#184CBE"/>
</svg>
