<svg width="79" height="6" viewBox="0 0 79 6" fill="none" xmlns="http://www.w3.org/2000/svg">
<path d="M0.333333 3C0.333333 4.47276 1.52724 5.66667 3 5.66667C4.47276 5.66667 5.66667 4.47276 5.66667 3C5.66667 1.52724 4.47276 0.333333 3 0.333333C1.52724 0.333333 0.333333 1.52724 0.333333 3ZM73.3333 2.99999C73.3333 4.47275 74.5272 5.66666 76 5.66666C77.4728 5.66666 78.6667 4.47275 78.6667 2.99999C78.6667 1.52723 77.4728 0.333327 76 0.333327C74.5272 0.333327 73.3333 1.52723 73.3333 2.99999ZM3 3.5L76 3.49999L76 2.49999L3 2.5L3 3.5Z" fill="#5A5A5A"/>
</svg>
