<svg width="78" height="114" viewBox="0 0 78 114" fill="none" xmlns="http://www.w3.org/2000/svg">
<path d="M39 3L39 111" stroke="#5A5A5A" stroke-linecap="round"/>
<path d="M39 2.5C38.7239 2.5 38.5 2.72386 38.5 3C38.5 3.27614 38.7239 3.5 39 3.5L39 2.5ZM72.3333 3C72.3333 4.47276 73.5272 5.66666 75 5.66666C76.4728 5.66666 77.6667 4.47276 77.6667 3C77.6667 1.52724 76.4728 0.33333 75 0.33333C73.5272 0.33333 72.3333 1.52724 72.3333 3ZM39 3.5L75 3.5L75 2.5L39 2.5L39 3.5Z" fill="#5A5A5A"/>
<path d="M39 2.5C39.2761 2.5 39.5 2.72386 39.5 3C39.5 3.27614 39.2761 3.5 39 3.5L39 2.5ZM5.66667 3C5.66667 4.47276 4.47276 5.66666 3 5.66666C1.52724 5.66666 0.333332 4.47276 0.333332 3C0.333332 1.52724 1.52724 0.33333 3 0.33333C4.47276 0.33333 5.66667 1.52724 5.66667 3ZM39 3.5L3 3.5L3 2.5L39 2.5L39 3.5Z" fill="#5A5A5A"/>
<path d="M39 56.5C38.7239 56.5 38.5 56.7239 38.5 57C38.5 57.2761 38.7239 57.5 39 57.5L39 56.5ZM72.3333 57C72.3333 58.4728 73.5272 59.6667 75 59.6667C76.4728 59.6667 77.6667 58.4728 77.6667 57C77.6667 55.5272 76.4728 54.3333 75 54.3333C73.5272 54.3333 72.3333 55.5272 72.3333 57ZM39 57.5L75 57.5L75 56.5L39 56.5L39 57.5Z" fill="#5A5A5A"/>
<path d="M39 110.5C38.7239 110.5 38.5 110.724 38.5 111C38.5 111.276 38.7239 111.5 39 111.5L39 110.5ZM72.3333 111C72.3333 112.473 73.5272 113.667 75 113.667C76.4728 113.667 77.6667 112.473 77.6667 111C77.6667 109.527 76.4728 108.333 75 108.333C73.5272 108.333 72.3333 109.527 72.3333 111ZM39 111.5L75 111.5L75 110.5L39 110.5L39 111.5Z" fill="#5A5A5A"/>
</svg>
